<?xml version="1.0" encoding="utf-8"?>
<!-- Svg Vector Icons : http://www.onlinewebfonts.com/icon -->
<!DOCTYPE svg PUBLIC "-//W3C//DTD SVG 1.1//EN" "http://www.w3.org/Graphics/SVG/1.1/DTD/svg11.dtd">
<svg version="1.1" xmlns="http://www.w3.org/2000/svg" xmlns:xlink="http://www.w3.org/1999/xlink" x="0px" y="0px" viewBox="0 0 256 256" enable-background="new 0 0 256 256" xml:space="preserve">
<metadata> Svg Vector Icons : http://www.onlinewebfonts.com/icon </metadata>
<g><g><path fill="#000000" d="M201.7,83.8c0-40.7-33-73.8-73.7-73.8c-40.7,0-73.8,33-73.8,73.8c0,16.5,5.6,31.6,14.8,43.9c0,0.1,0,0.2,0,0.3v103.3c0,5.4,3,10.5,7.8,13c4.8,2.6,10.6,2.3,15.1-0.7l36-24.1l36.1,24c2.5,1.6,5.3,2.5,8.2,2.5c2.4,0,4.8-0.6,7-1.7c4.8-2.6,7.8-7.6,7.8-13V128c0-0.1,0-0.2,0-0.3C196.1,115.4,201.7,100.3,201.7,83.8z M128,39.5c24.4,0,44.2,19.8,44.2,44.3c0,24.4-19.8,44.2-44.2,44.2c-24.4,0-44.3-19.8-44.3-44.2C83.8,59.3,103.6,39.5,128,39.5z M136.2,189.5c-5-3.3-11.4-3.3-16.4,0l-21.3,14.2v-52.4c9.1,3.9,19,6.2,29.5,6.2c10.5,0,20.4-2.3,29.5-6.2v52.4L136.2,189.5z"/></g></g>
</svg>